<?xml version="1.0" encoding="UTF-8" standalone="no"?>
<!-- Created with Inkscape (http://www.inkscape.org/) -->

<svg
   width="118.99939mm"
   height="116.57935mm"
   viewBox="0 0 118.99939 116.57935"
   version="1.1"
   id="svg5"
   xml:space="preserve"
   xmlns="http://www.w3.org/2000/svg"
   xmlns:svg="http://www.w3.org/2000/svg"><defs
     id="defs2" /><g
     id="layer1"
     transform="translate(-0.96642514,-0.69423829)"><path
       style="fill:#000000;stroke-width:0.264583"
       d="M 56.074472,117.06595 C 36.889302,114.34622 13.952333,97.243401 4.9636074,78.955428 c -3.61309,-7.35099 -4.62626897,-13.06074 -3.641924,-20.52395 0.44921,-3.40584 0.716897,-4.69752 1.639882,-7.91292 1.287513,-4.48531 4.287383,-11.080008 6.914042,-15.199348 L 10.963163,33.613619 8.9221284,31.615044 C 5.6407344,28.401917 4.0564404,25.177059 3.5191984,20.61728 2.0831514,8.4289845 13.684292,-1.7186615 25.718103,1.1996545 c 2.976634,0.721863 7.244099,3.264146 8.971829,5.344838 0.38681,0.465838 1.58987,1.762962 2.67345,2.882499 l 1.97016,2.0355205 2.43242,-0.580312 c 2.3624,-0.563605 2.88567,-0.580312 18.17514,-0.580312 15.43662,0 15.79983,0.01191 18.68051,0.612771 l 2.93781,0.612772 1.6924,-1.7930185 c 5.43667,-5.759893 7.02354,-6.940897 11.03998,-8.216354 5.35194,-1.69955796 11.330688,-0.65744696 15.994448,2.787874 4.41986,3.265142 7.28799,8.9584705 7.32478,14.5399225 0.0312,4.727771 -2.52335,10.256472 -6.18397,13.383832 -0.81384,0.695287 -1.47971,1.376381 -1.47971,1.513543 0,0.13716 0.31013,0.740664 0.68918,1.34112 4.01222,6.355768 6.41956,11.847362 7.9837,18.212328 1.8589,7.56442 1.79599,13.41184 -0.21491,19.97604 -1.35187,4.41294 -5.5748,11.802403 -9.60147,16.801043 -2.43199,3.01904 -9.490648,9.91938 -12.663028,12.379009 -7.78364,6.03487 -17.00855,11.00733 -24.34315,13.12158 -4.92836,1.42063 -11.69539,2.06259 -15.7232,1.4916 z m 8.57824,-12.04788 c 9.66018,-1.5667 21.45685,-8.500369 30.88922,-18.155609 6.264888,-6.412933 10.184008,-12.426623 11.787718,-18.087653 2.88913,-10.19857 -3.23948,-25.635451 -14.407828,-36.290785 -4.89253,-4.667788 -10.17161,-7.937942 -15.38593,-9.53088 l -2.38125,-0.727456 -13.85796,-0.0901 c -9.21951,-0.05994 -14.48881,0.0075 -15.74271,0.201424 -8.96331,1.386433 -18.588258,8.616405 -25.364986,19.053421 -5.537923,8.529096 -8.378651,19.018556 -6.961413,25.705196 0.69949,3.30023 1.955798,6.29223 4.080383,9.71777 7.081095,11.417083 21.068706,22.641283 33.318466,26.736032 5.43739,1.81757 9.34928,2.22717 14.02629,1.46864 z m -6.69599,-12.371669 c -2.0061,-1.07773 -6.42889,-5.41472 -7.22816,-7.08794 -0.76708,-1.60584 -0.76276,-2.99753 0.011,-3.539493 0.7413,-0.51922 1.69507,-0.51694 5.64066,0.0135 2.77229,0.372683 3.776,0.383853 8.10712,0.0902 4.53212,-0.30729 4.99959,-0.29816 5.6224,0.10993 2.37305,1.554883 -2.22761,8.256473 -7.28397,10.610223 -1.89258,0.881 -2.94243,0.83866 -4.86904,-0.19637 z M 34.805682,77.445928 c -3.42438,-1.19424 -6.083389,-4.38552 -7.033211,-8.44108 -0.607044,-2.59196 -0.400677,-7.75334 0.411191,-10.28421 1.286524,-4.01054 3.7516,-8.01461 6.13448,-9.964333 3.30602,-2.705071 5.85718,-3.766595 9.09206,-3.783145 1.86981,-0.0096 2.32903,0.09095 3.86081,0.845045 3.0353,1.494271 5.29645,4.238983 6.55949,7.962273 0.93535,2.75734 0.74886,7.8778 -0.42083,11.55474 -2.39965,7.5433 -8.56344,12.61172 -15.25842,12.54682 -1.22087,-0.0118 -2.67103,-0.20087 -3.34557,-0.43611 z m 12.59045,-11.04435 c 1.42541,-0.4233 2.90111,-1.74427 3.68433,-3.29802 0.70903,-1.40657 0.43291,-4.18108 -0.55848,-5.61165 -1.12324,-1.62084 -2.4939,-2.42302 -4.37227,-2.55889 -1.98814,-0.14381 -3.503,0.4068 -4.78525,1.73929 -3.05088,3.17044 -1.79727,8.25078 2.40665,9.7531 1.26096,0.45061 2.04474,0.44546 3.62502,-0.0238 z m 31.12026,10.56033 c -2.53068,-0.68117 -4.33299,-1.75137 -6.43573,-3.82148 -3.51527,-3.46074 -5.21435,-7.9149 -5.4501,-14.2875 -0.11802,-3.19028 -0.0702,-3.75452 0.44735,-5.28157 0.31872,-0.94033 0.86895,-2.20362 1.22274,-2.80732 0.95017,-1.621338 3.58506,-4.007647 5.28388,-4.785392 1.32697,-0.60751 1.7384,-0.669153 3.77857,-0.566124 1.99861,0.100928 2.55692,0.247004 4.39484,1.14985 4.59717,2.258274 8.32421,7.173216 9.82162,12.952016 0.65603,2.53176 0.66521,7.35531 0.0181,9.49413 -1.8748,6.19624 -7.31679,9.50497 -13.08124,7.95339 z m -0.37713,-11.01087 c 3.43884,-1.75696 4.16463,-6.44402 1.43681,-9.27873 -1.28852,-1.33901 -2.79531,-1.88323 -4.81055,-1.73746 -2.12568,0.15376 -3.57291,1.13738 -4.57182,3.10727 -2.68392,5.29281 2.65823,10.61032 7.94556,7.90892 z"
       id="path426" /></g></svg>
