<svg
   width="210mm"
   height="297mm"
   viewBox="0 0 210 297"
   version="1.1"
   id="svg5"
   xml:space="preserve"
   xmlns:inkscape="http://www.inkscape.org/namespaces/inkscape"
   xmlns:sodipodi="http://sodipodi.sourceforge.net/DTD/sodipodi-0.dtd"
   xmlns="http://www.w3.org/2000/svg"
   xmlns:svg="http://www.w3.org/2000/svg"><sodipodi:namedview
     id="namedview7"
     pagecolor="#ffffff"
     bordercolor="#000000"
     borderopacity="0.25"
     inkscape:showpageshadow="2"
     inkscape:pageopacity="0.0"
     inkscape:pagecheckerboard="0"
     inkscape:deskcolor="#d1d1d1"
     inkscape:document-units="mm"
     showgrid="false" /><defs
     id="defs2" /><g
     inkscape:label="Capa 1"
     inkscape:groupmode="layer"
     id="layer1"
     style="display:inline"><path
       style="fill:#000000;stroke-width:0.12921"
       d="m 89.892505,72.441436 c -2.44917,-0.23874 -5.05579,-1.18421 -6.49043,-2.35419 l -0.74057,-0.60396 -0.24992,0.48989 c -0.13746,0.26943 -0.52082,0.7396 -0.85193,1.0448 -1.60477,1.47922 -3.75639,1.69937 -6.0095,0.61487 -1.08459,-0.52205 -2.63023,-2.03016 -3.26342,-3.18416 -1.23531,-2.251397 -1.42871,-4.781231 -0.51343,-6.716122 0.64175,-1.356657 2.1225,-2.474601 3.52849,-2.663963 l 0.59152,-0.07967 0.48293,-1.22439 c 0.7633,-1.935215 1.85837,-3.649751 3.42801,-5.367184 l 0.64204,-0.702487 -0.95229,-0.541809 c -4.15453,-2.363755 -6.85412,-6.064885 -7.62085,-10.448209 -0.36352,-2.078159 -0.21418,-5.03874 0.34727,-6.884544 l 0.17686,-0.581446 -0.5784,-0.710657 c -0.62997,-0.774028 -1.35092,-2.214852 -1.55822,-3.114124 -0.0721,-0.312605 -0.13245,-1.103208 -0.13419,-1.756897 -0.007,-2.571988 1.2624,-4.901188 3.44317,-6.318614 1.75236,-1.13898 4.30034,-1.46522 6.20934,-0.795033 1.19659,0.420086 1.90162,0.837244 2.79513,1.653869 l 0.71748,0.655737 1.20079,-0.384618 c 2.01038,-0.643936 3.81525,-0.937353 6.25449,-1.016793 3.01888,-0.09832 5.51032,0.230151 8.10072,1.067987 l 1.00865,0.326237 0.800285,-0.725047 c 1.01537,-0.919895 2.36704,-1.576275 3.74459,-1.818403 3.50862,-0.6167 7.0361,1.480789 8.2348,4.896528 0.34864,0.993461 0.48286,3.070852 0.26592,4.115833 -0.20429,0.984083 -0.88401,2.361325 -1.59806,3.23799 -0.3249,0.398879 -0.5664,0.74955 -0.53668,0.779269 0.0297,0.02972 0.17531,0.515121 0.32353,1.078674 0.39809,1.513584 0.48868,4.529048 0.18673,6.215665 -0.23042,1.28709 -0.78482,3.041333 -1.25873,3.982908 -1.29889,2.580671 -3.63466,4.996777 -6.24935,6.464265 l -1.09015,0.611845 0.62532,0.661282 c 1.482,1.567239 2.94812,3.921785 3.64075,5.846919 l 0.28512,0.792486 0.61183,0.08116 c 1.36386,0.180923 2.9037,1.343054 3.52773,2.662414 0.6875,1.453542 0.76067,3.212391 0.20901,5.024112 -0.80948,2.65846 -3.1325,4.93874 -5.56216,5.4598 -0.9394,0.20147 -2.29455,0.0621 -3.13414,-0.32224 -0.81793,-0.37446 -1.77038,-1.2133 -2.15535,-1.89827 l -0.27328,-0.48623 -0.726055,0.59214 c -1.45578,1.18725 -3.98242,2.08876 -6.58653,2.35008 -1.47458,0.14798 -1.65621,0.14754 -3.24887,-0.008 z m -10.47061,-1.72996 c 1.38559,-0.48886 2.20474,-1.71584 2.30531,-3.453049 0.0764,-1.320385 -0.12662,-2.232762 -0.77693,-3.490997 -0.61133,-1.182826 -1.76417,-2.337035 -2.87911,-2.882524 -1.57572,-0.770926 -3.3818,-0.517573 -4.40804,0.618352 -0.80449,0.890475 -1.01773,1.525464 -1.00896,3.00451 0.007,1.115182 0.0594,1.421725 0.38528,2.238767 1.18475,2.970131 4.08879,4.774191 6.38245,3.964941 z m 26.936815,-0.0743 c 1.60635,-0.60101 3.0023,-2.05883 3.76593,-3.932852 0.31975,-0.784693 0.36878,-1.075587 0.37022,-2.196576 10e-4,-1.044343 -0.0508,-1.406629 -0.27199,-1.889365 -0.95183,-2.077482 -3.11935,-2.759268 -5.28215,-1.661487 -1.57339,0.798608 -3.05024,2.742862 -3.43057,4.516286 -0.0815,0.379981 -0.12315,1.167597 -0.0926,1.750256 0.0936,1.783208 0.88737,2.972848 2.34125,3.508878 0.6593,0.24308 1.8083,0.20103 2.59988,-0.0951 z m -12.485555,-0.70486 c 4.27192,-0.69283 6.349525,-2.723618 6.354645,-6.211464 0.005,-3.29182 -1.902955,-6.29804 -5.026175,-7.920073 -1.25892,-0.653816 -2.30497,-0.919202 -3.62312,-0.919202 -1.30568,0 -1.97943,0.157755 -3.30113,0.772944 -3.30789,1.539674 -5.3688,4.620331 -5.35907,8.010763 0.005,1.812211 0.37333,2.893089 1.35542,3.979697 1.75376,1.940405 5.79748,2.903935 9.59943,2.287335 z m 0.67953,-17.437069 c 6.574885,-0.769106 11.782855,-3.964902 14.070725,-8.6343 1.9106,-3.899432 1.83017,-8.223187 -0.22338,-12.008402 -2.31902,-4.274543 -6.69905,-7.275493 -12.434635,-8.519517 -1.85273,-0.401849 -6.45759,-0.434917 -8.46328,-0.06077 -5.85993,1.093109 -10.7922,4.532563 -13.04248,9.094998 -2.03421,4.124357 -1.66069,9.220908 0.95846,13.077779 3.49074,5.140342 11.19491,7.978972 19.13459,7.050217 z m -6.59833,-2.987541 c -0.57927,-0.25021 -1.37353,-1.016272 -1.69069,-1.630644 -0.32027,-0.620424 -0.31824,-0.628395 0.15076,-0.592658 0.24903,0.01898 0.44858,0.12866 0.53263,0.292777 0.20425,0.398818 0.77217,0.974577 1.16239,1.17844 0.19191,0.100253 0.63393,0.182279 0.98228,0.182279 0.79424,0 1.35332,-0.353004 1.93856,-1.224003 l 0.42713,-0.635679 -0.81513,-0.265354 c -1.49313,-0.48607 -2.134,-1.232189 -2.00922,-2.339211 0.0862,-0.76461 0.49231,-1.271744 1.35947,-1.69757 0.59183,-0.290622 0.91018,-0.361904 1.5913,-0.356298 2.88245,0.02373 4.03498,2.830959 1.68519,4.104641 -0.32917,0.178424 -0.81485,0.364517 -1.07928,0.413539 l -0.48079,0.08913 0.20482,0.406258 c 0.4911,0.974122 1.25897,1.504546 2.17807,1.504546 0.32685,0 0.75129,-0.08203 0.94319,-0.182279 0.40015,-0.20905 0.95886,-0.781611 1.17754,-1.206732 0.10416,-0.202492 0.2658,-0.290724 0.53263,-0.290724 0.21069,0 0.38308,0.05004 0.38308,0.111211 0,0.06117 -0.20807,0.427161 -0.46238,0.813323 -0.59158,0.898304 -1.40894,1.428339 -2.319,1.503808 -0.89402,0.07414 -1.53042,-0.15146 -2.21979,-0.7869 l -0.56516,-0.520946 -0.4794,0.467126 c -0.26366,0.25692 -0.69557,0.557183 -0.95978,0.66725 -0.60404,0.251636 -1.57907,0.249238 -2.16842,-0.0053 z m -8.58031,-5.747028 c -1.60634,-0.26542 -3.27564,-1.591966 -3.81401,-3.030886 -0.4597,-1.228675 -0.58997,-2.390781 -0.41517,-3.703681 0.3399,-2.552973 1.3325,-4.699635 2.99741,-6.482402 3.23691,-3.466058 6.91138,-3.997219 9.3595,-1.352962 1.91993,2.073751 1.90512,5.60636 -0.0386,9.203881 -1.98422,3.6725 -5.2455,5.835913 -8.08914,5.36605 z m 2.93046,-1.785321 c 2.17464,-1.103787 4.30935,-3.953878 5.00827,-6.686637 0.33775,-1.320609 0.34187,-3.043194 0.009,-3.918265 -0.6791,-1.787239 -2.35511,-2.787255 -4.13096,-2.464803 -2.13627,0.387896 -4.50633,2.397089 -5.75046,4.874908 -0.60357,1.202063 -1.00771,2.827506 -1.02187,4.109855 -0.0238,2.151552 0.60457,3.396564 2.109,4.179017 0.78803,0.40985 0.8923,0.430788 1.89157,0.379855 0.87228,-0.04446 1.20254,-0.127491 1.88508,-0.47393 z m -2.62304,-2.243695 c -1.99214,-1.007204 -1.90673,-4.539025 0.15959,-6.5992 1.61548,-1.610682 3.59226,-1.828618 4.74171,-0.522766 0.63064,0.716439 0.83878,1.456113 0.7591,2.697659 -0.19944,3.107742 -3.36719,5.583727 -5.6604,4.424307 z m 2.65223,-0.660039 c 1.1845,-0.554037 2.26704,-2.068925 2.45994,-3.44239 l 0.0817,-0.581446 -0.38287,0.646052 c -0.59052,0.996436 -1.54818,1.820309 -2.40567,2.069588 -1.46693,0.426447 -2.5458,-0.185625 -2.94266,-1.669451 -0.19926,-0.744991 -0.34113,-0.502776 -0.3546,0.605393 -0.0261,2.150055 1.63795,3.263887 3.5442,2.372254 z m 19.718125,4.693572 c -0.91848,-0.133419 -2.613895,-0.984588 -3.511465,-1.762906 -2.24145,-1.943657 -3.87707,-4.947612 -4.25741,-7.819106 -0.26888,-2.030047 0.20603,-3.768029 1.36954,-5.011912 2.45599,-2.625655 6.117935,-2.08812 9.349715,1.372438 1.15092,1.232397 1.92152,2.523676 2.44104,4.090416 1.05245,3.17389 0.75998,5.858038 -0.82481,7.569802 -0.47148,0.509254 -0.94181,0.861799 -1.45991,1.094309 -0.69533,0.312045 -1.90697,0.624533 -2.26571,0.58434 -0.0791,-0.0089 -0.45758,-0.06169 -0.84099,-0.117381 z m 2.06684,-1.437517 c 1.20084,-0.409297 2.13845,-1.451887 2.45802,-2.733228 0.38558,-1.545974 0.008,-4.058868 -0.87293,-5.81389 -1.56568,-3.118209 -4.73279,-5.304964 -7.047475,-4.865991 -3.53816,0.670998 -4.16238,5.356893 -1.29896,9.751108 1.04516,1.603909 2.650895,3.031275 4.006035,3.561031 0.7037,0.27509 2.09489,0.326071 2.75531,0.10097 z m -3.46557,-2.695269 c -0.986665,-0.493046 -1.872845,-1.434691 -2.402615,-2.553005 -0.37722,-0.796291 -0.41153,-0.976458 -0.41153,-2.160828 0,-1.212167 0.024,-1.330343 0.38763,-1.910233 0.55157,-0.879559 1.45706,-1.317361 2.524445,-1.220574 2.17072,0.196834 4.14174,2.60829 4.15143,5.079099 0.008,1.994419 -0.98904,3.155517 -2.70918,3.155517 -0.58668,0 -0.93756,-0.08884 -1.54018,-0.389976 z m 2.39298,-0.437615 c 0.84658,-0.440472 1.32285,-1.348485 1.30891,-2.495425 -0.0138,-1.134628 -0.15975,-1.358266 -0.36467,-0.55873 -0.44896,1.751737 -2.2335,2.281618 -3.92059,1.164135 -0.569355,-0.377126 -0.933345,-0.800735 -1.485655,-1.728992 l -0.31415,-0.527995 0.0813,0.581446 c 0.19192,1.372593 1.27484,2.888246 2.459565,3.44239 0.73944,0.345871 1.70501,0.399076 2.23529,0.123171 z"
       id="path302" /></g></svg>
